<svg xmlns="http://www.w3.org/2000/svg" viewBox="0 0 560 732" class="anim-fig" data-anim="1" data-peak="2.1" role="img" aria-labelledby="anim-ankle-df-pf-t"><title id="anim-ankle-df-pf-t">踝關節：背屈／蹠屈（側面看）</title><defs><clipPath id="anim-ankle-df-pf-clip"><rect x="0" y="0" width="536" height="440" rx="14"/></clipPath><marker id="anim-ankle-df-pf-ah-2563eb" viewBox="0 0 10 10" refX="6" refY="5" markerWidth="4.2" markerHeight="4.2" orient="auto-start-reverse"><path d="M0,0 L10,5 L0,10 z" fill="#2563eb"/></marker><marker id="anim-ankle-df-pf-ah-db2777" viewBox="0 0 10 10" refX="6" refY="5" markerWidth="4.2" markerHeight="4.2" orient="auto-start-reverse"><path d="M0,0 L10,5 L0,10 z" fill="#db2777"/></marker><marker id="anim-ankle-df-pf-ah-c2410c" viewBox="0 0 10 10" refX="6" refY="5" markerWidth="4.2" markerHeight="4.2" orient="auto-start-reverse"><path d="M0,0 L10,5 L0,10 z" fill="#c2410c"/></marker><marker id="anim-ankle-df-pf-ah-0f766e" viewBox="0 0 10 10" refX="6" refY="5" markerWidth="4.2" markerHeight="4.2" orient="auto-start-reverse"><path d="M0,0 L10,5 L0,10 z" fill="#0f766e"/></marker><marker id="anim-ankle-df-pf-ah-7c3aed" viewBox="0 0 10 10" refX="6" refY="5" markerWidth="4.2" markerHeight="4.2" orient="auto-start-reverse"><path d="M0,0 L10,5 L0,10 z" fill="#7c3aed"/></marker><marker id="anim-ankle-df-pf-ah-ca8a04" viewBox="0 0 10 10" refX="6" refY="5" markerWidth="4.2" markerHeight="4.2" orient="auto-start-reverse"><path d="M0,0 L10,5 L0,10 z" fill="#ca8a04"/></marker><marker id="anim-ankle-df-pf-ah-475569" viewBox="0 0 10 10" refX="6" refY="5" markerWidth="4.2" markerHeight="4.2" orient="auto-start-reverse"><path d="M0,0 L10,5 L0,10 z" fill="#475569"/></marker></defs><rect width="560" height="732" rx="18" fill="#ffffff"/><text x="280" y="40" font-family="'Noto Sans TC','Noto Sans CJK TC','PingFang TC','Heiti TC','Microsoft JhengHei',sans-serif" font-size="27" font-weight="900" fill="#0f172a" text-anchor="middle" >踝關節：背屈／蹠屈（側面看）</text><g transform="translate(12,58)"><rect width="536" height="440" rx="14" fill="#f1f5f9" stroke="#e2e8f0"/><g clip-path="url(#anim-ankle-df-pf-clip)"><g transform="translate(-310,-560) scale(2.2)"><path d="M246,403 Q236,405 235,413 Q236,421 246,421 L290,421 Q297,420 296,414 Q294,409 286,408 L262,401 Z" fill="#94a3b8" fill-opacity=".2" stroke="#64748b" stroke-width="1.6" stroke-dasharray="4 3"/><path d="M234,226 L234,322 A16,16 0 0 0 266,322 L266,226 A16,16 0 0 0 234,226 Z" fill="#cbd5e1" stroke="#475569" stroke-width="2.5" stroke-linejoin="round" /><path d="M237.5,322 L237.5,402 A12.5,12.5 0 0 0 262.5,402 L262.5,322 A12.5,12.5 0 0 0 237.5,322 Z" fill="#cbd5e1" stroke="#475569" stroke-width="2.5" stroke-linejoin="round" /><g><animateTransform attributeName="transform" type="rotate" values="0 250 408;0 250 408;-22 250 408;-22 250 408;38 250 408;38 250 408;0 250 408" keyTimes="0;0.1;0.3;0.4;0.7;0.8;1" dur="6.0s" repeatCount="indefinite" calcMode="spline" keySplines="0.45 0 0.55 1;0.45 0 0.55 1;0.45 0 0.55 1;0.45 0 0.55 1;0.45 0 0.55 1;0.45 0 0.55 1"/><path d="M246,403 Q236,405 235,413 Q236,421 246,421 L290,421 Q297,420 296,414 Q294,409 286,408 L262,401 Z" fill="#fdba74" stroke="#c2410c" stroke-width="1.8" stroke-linejoin="round"/></g><g opacity="0"><animate attributeName="opacity" values="1;0;1" keyTimes="0;0.4;0.8" dur="6.0s" repeatCount="indefinite" calcMode="discrete"/><path d="M309.7,414.3 A60,60 0 0 0 305.6,385.5" fill="none" stroke="#2563eb" stroke-width="3" stroke-linecap="round" marker-end="url(#anim-ankle-df-pf-ah-2563eb)"/></g><g opacity="0"><animate attributeName="opacity" values="0;1;0" keyTimes="0;0.4;0.8" dur="6.0s" repeatCount="indefinite" calcMode="discrete"/><path d="M305.6,385.5 A60,60 0 0 1 296,446.6" fill="none" stroke="#db2777" stroke-width="3" stroke-linecap="round" marker-end="url(#anim-ankle-df-pf-ah-db2777)"/></g><circle cx="250" cy="408" r="3.6" fill="#fff" stroke="#0f172a" stroke-width="1.5"/><circle cx="250" cy="408" r="1.3" fill="#0f172a"/></g></g><g opacity="0"><animate attributeName="opacity" values="1;0;1" keyTimes="0;0.4;0.8" dur="6.0s" repeatCount="indefinite" calcMode="discrete"/><text x="18" y="44" font-family="'Noto Sans TC','Noto Sans CJK TC','PingFang TC','Heiti TC','Microsoft JhengHei',sans-serif" font-size="36" font-weight="900" fill="#2563eb" text-anchor="start" stroke="#fff" stroke-width="5" paint-order="stroke" stroke-linejoin="round">背屈</text><text x="18" y="76" font-family="'Noto Sans TC','Noto Sans CJK TC','PingFang TC','Heiti TC','Microsoft JhengHei',sans-serif" font-size="22" font-weight="700" fill="#334155" text-anchor="start" stroke="#fff" stroke-width="5" paint-order="stroke" stroke-linejoin="round">腳尖往上勾（腳背靠近小腿）</text></g><g opacity="0"><animate attributeName="opacity" values="0;1;0" keyTimes="0;0.4;0.8" dur="6.0s" repeatCount="indefinite" calcMode="discrete"/><text x="18" y="44" font-family="'Noto Sans TC','Noto Sans CJK TC','PingFang TC','Heiti TC','Microsoft JhengHei',sans-serif" font-size="36" font-weight="900" fill="#db2777" text-anchor="start" stroke="#fff" stroke-width="5" paint-order="stroke" stroke-linejoin="round">蹠屈</text><text x="18" y="76" font-family="'Noto Sans TC','Noto Sans CJK TC','PingFang TC','Heiti TC','Microsoft JhengHei',sans-serif" font-size="22" font-weight="700" fill="#334155" text-anchor="start" stroke="#fff" stroke-width="5" paint-order="stroke" stroke-linejoin="round">腳尖往下壓（像踮腳）</text></g><g><path d="M330,427 L358,427 A7,7 0 0 0 358,413 L330,413 A7,7 0 0 0 330,427 Z" fill="#94a3b8" stroke="#64748b" stroke-width="2.5" stroke-linejoin="round" fill-opacity=".2" stroke-dasharray="6 5"/><text x="372" y="428" font-family="'Noto Sans TC','Noto Sans CJK TC','PingFang TC','Heiti TC','Microsoft JhengHei',sans-serif" font-size="20" font-weight="700" fill="#475569" text-anchor="start" >虛線＝起始位置</text></g></g><rect x="14" y="516" width="62" height="32" rx="16" fill="#0f766e"/><text x="45" y="539" font-family="'Noto Sans TC','Noto Sans CJK TC','PingFang TC','Heiti TC','Microsoft JhengHei',sans-serif" font-size="20" font-weight="800" fill="#fff" text-anchor="middle" >關節</text><g><text x="86" y="540" font-family="'Noto Sans TC','Noto Sans CJK TC','PingFang TC','Heiti TC','Microsoft JhengHei',sans-serif" font-size="23" font-weight="700" fill="#0f172a" text-anchor="start" >踝關節</text></g><rect x="14" y="563" width="62" height="32" rx="16" fill="#7c3aed"/><text x="45" y="586" font-family="'Noto Sans TC','Noto Sans CJK TC','PingFang TC','Heiti TC','Microsoft JhengHei',sans-serif" font-size="20" font-weight="800" fill="#fff" text-anchor="middle" >平面</text><g><text x="86" y="587" font-family="'Noto Sans TC','Noto Sans CJK TC','PingFang TC','Heiti TC','Microsoft JhengHei',sans-serif" font-size="23" font-weight="700" fill="#0f172a" text-anchor="start" >矢狀面</text></g><rect x="14" y="610" width="83" height="32" rx="16" fill="#c2410c"/><text x="55.5" y="633" font-family="'Noto Sans TC','Noto Sans CJK TC','PingFang TC','Heiti TC','Microsoft JhengHei',sans-serif" font-size="20" font-weight="800" fill="#fff" text-anchor="middle" >主力肌</text><g opacity="0"><animate attributeName="opacity" values="1;0;1" keyTimes="0;0.4;0.8" dur="6.0s" repeatCount="indefinite" calcMode="discrete"/><text x="107" y="634" font-family="'Noto Sans TC','Noto Sans CJK TC','PingFang TC','Heiti TC','Microsoft JhengHei',sans-serif" font-size="23" font-weight="700" fill="#0f172a" text-anchor="start" >脛前肌</text></g><g opacity="0"><animate attributeName="opacity" values="0;1;0" keyTimes="0;0.4;0.8" dur="6.0s" repeatCount="indefinite" calcMode="discrete"/><text x="107" y="634" font-family="'Noto Sans TC','Noto Sans CJK TC','PingFang TC','Heiti TC','Microsoft JhengHei',sans-serif" font-size="23" font-weight="700" fill="#0f172a" text-anchor="start" >腓腸肌、比目魚肌</text></g><rect x="14" y="657" width="62" height="32" rx="16" fill="#475569"/><text x="45" y="680" font-family="'Noto Sans TC','Noto Sans CJK TC','PingFang TC','Heiti TC','Microsoft JhengHei',sans-serif" font-size="20" font-weight="800" fill="#fff" text-anchor="middle" >例子</text><g opacity="0"><animate attributeName="opacity" values="1;0;1" keyTimes="0;0.4;0.8" dur="6.0s" repeatCount="indefinite" calcMode="discrete"/><text x="86" y="681" font-family="'Noto Sans TC','Noto Sans CJK TC','PingFang TC','Heiti TC','Microsoft JhengHei',sans-serif" font-size="23" font-weight="700" fill="#0f172a" text-anchor="start" >走路腳尖抬起＝背屈</text></g><g opacity="0"><animate attributeName="opacity" values="0;1;0" keyTimes="0;0.4;0.8" dur="6.0s" repeatCount="indefinite" calcMode="discrete"/><text x="86" y="681" font-family="'Noto Sans TC','Noto Sans CJK TC','PingFang TC','Heiti TC','Microsoft JhengHei',sans-serif" font-size="23" font-weight="700" fill="#0f172a" text-anchor="start" >提踵（踮腳尖）＝蹠屈</text></g></svg>